<svg width="24" height="24" viewBox="0 0 24 24" fill="none" xmlns="http://www.w3.org/2000/svg">
<path d="M17 2H7C4.24 2 2 4.23 2 6.98V12.96V13.96C2 16.71 4.24 18.94 7 18.94H8.5C8.77 18.94 9.13 19.12 9.3 19.34L10.8 21.33C11.46 22.21 12.54 22.21 13.2 21.33L14.7 19.34C14.89 19.09 15.19 18.94 15.5 18.94H17C19.76 18.94 22 16.71 22 13.96V6.98C22 4.23 19.76 2 17 2ZM13 13.75H7C6.59 13.75 6.25 13.41 6.25 13C6.25 12.59 6.59 12.25 7 12.25H13C13.41 12.25 13.75 12.59 13.75 13C13.75 13.41 13.41 13.75 13 13.75ZM17 8.75H7C6.59 8.75 6.25 8.41 6.25 8C6.25 7.59 6.59 7.25 7 7.25H17C17.41 7.25 17.75 7.59 17.75 8C17.75 8.41 17.41 8.75 17 8.75Z" fill="#E8E8E8"/>
</svg>
