<svg width="24" height="24" viewBox="0 0 24 24" fill="none" xmlns="http://www.w3.org/2000/svg">
<path opacity="0.4" d="M20.83 8.01002L14.28 2.77002C13 1.75002 11 1.74002 9.73 2.76002L3.18 8.01002C2.24 8.76002 1.67 10.26 1.87 11.44L3.13 18.98C3.42 20.67 4.99 22 6.7 22H17.3C18.99 22 20.59 20.64 20.88 18.97L22.14 11.43C22.32 10.26 21.75 8.76002 20.83 8.01002Z" fill="white" fill-opacity="0.4"/>
<path d="M12 18.75C11.59 18.75 11.25 18.41 11.25 18V15C11.25 14.59 11.59 14.25 12 14.25C12.41 14.25 12.75 14.59 12.75 15V18C12.75 18.41 12.41 18.75 12 18.75Z" fill="white" fill-opacity="0.4"/>
</svg>
