<svg width="24" height="24" viewBox="0 0 24 24" fill="none" xmlns="http://www.w3.org/2000/svg">
<path opacity="0.4" d="M18.94 5.41994L13.77 2.42994C12.78 1.85994 11.23 1.85994 10.24 2.42994L5.01999 5.43994C2.94999 6.83994 2.82999 7.04994 2.82999 9.27994V14.7099C2.82999 16.9399 2.94999 17.1599 5.05999 18.5799L10.23 21.5699C10.73 21.8599 11.37 21.9999 12 21.9999C12.63 21.9999 13.27 21.8599 13.76 21.5699L18.98 18.5599C21.05 17.1599 21.17 16.9499 21.17 14.7199V9.27994C21.17 7.04994 21.05 6.83994 18.94 5.41994Z" fill="white" fill-opacity="0.4"/>
<path d="M12 15.25C13.7949 15.25 15.25 13.7949 15.25 12C15.25 10.2051 13.7949 8.75 12 8.75C10.2051 8.75 8.75 10.2051 8.75 12C8.75 13.7949 10.2051 15.25 12 15.25Z" fill="white" fill-opacity="0.4"/>
</svg>
