<svg width="100" height="101" viewBox="0 0 100 101" fill="none" xmlns="http://www.w3.org/2000/svg">
<path d="M49.9896 91.1787C72.4064 91.1787 90.5789 73.0062 90.5789 50.5894C90.5789 28.1725 72.4064 10 49.9895 10C27.5728 10 9.40039 28.1725 9.40039 50.5894C9.40039 73.0062 27.5727 91.1787 49.9897 91.1787" fill="white"/>
<path d="M42.6338 69.5797L74.8988 37.3147C75.4365 36.7769 75.7359 36.0644 75.7419 35.3084C75.7478 34.5414 75.4527 33.8206 74.9107 33.2787C74.9108 33.2775 74.9106 33.2785 74.9106 33.2785L74.9105 33.2784C74.3821 32.7501 73.6431 32.4493 72.8902 32.4522C72.1275 32.4554 71.4117 32.7531 70.8745 33.2902L40.6875 63.4774L31.4105 54.2002C30.8732 53.6629 30.1572 53.3652 29.3946 53.3622H29.3833C28.6318 53.3622 27.9002 53.6632 27.3746 54.1889C26.2652 55.2984 26.2704 57.1088 27.3862 58.2246L38.121 68.9594C38.2496 69.1915 38.4101 69.4043 38.5979 69.5917C39.1505 70.1442 39.8768 70.4201 40.6048 70.42C40.9817 70.4204 41.3549 70.3463 41.7031 70.2021C42.0513 70.0579 42.3675 69.8464 42.6338 69.5797ZM49.9893 10C27.5724 10 9.3999 28.1725 9.3999 50.5894C9.3999 73.0063 27.5724 91.1787 49.9893 91.1787C72.4061 91.1787 90.5786 73.0063 90.5786 50.5894C90.5786 28.1724 72.4061 10 49.9893 10ZM49.9893 14C54.9305 14 59.7219 14.9669 64.2303 16.8738C68.5868 18.7164 72.5002 21.3552 75.8618 24.7168C79.2234 28.0784 81.8622 31.9918 83.7049 36.3484C85.6117 40.8567 86.5786 45.6481 86.5786 50.5894C86.5786 55.5307 85.6117 60.3221 83.7049 64.8304C81.8622 69.1869 79.2234 73.1004 75.8618 76.462C72.5002 79.8236 68.5868 82.4623 64.2303 84.305C59.7219 86.2119 54.9305 87.1787 49.9893 87.1787C45.048 87.1787 40.2566 86.2119 35.7482 84.305C31.3917 82.4623 27.4783 79.8236 24.1167 76.462C20.7551 73.1004 18.1163 69.1869 16.2736 64.8304C14.3668 60.322 13.3999 55.5307 13.3999 50.5894C13.3999 45.6481 14.3668 40.8567 16.2736 36.3484C18.1163 31.9918 20.7551 28.0784 24.1167 24.7168C27.4783 21.3552 31.3917 18.7164 35.7482 16.8738C40.2566 14.9668 45.048 14 49.9893 14Z" fill="#428445"/>
</svg>
