<svg width="100" height="100" viewBox="0 0 100 100" fill="none" xmlns="http://www.w3.org/2000/svg">
<rect width="100" height="100" fill="white"/>
<path d="M0 50V0H50H100V50V100H50H0V50ZM52.841 80.9603C54.3917 80.5085 56.2125 79.4941 57.2369 78.5114C57.9137 77.8621 59.115 75.9819 62.3971 70.4348C62.5032 70.2554 63.1486 69.1794 63.8312 68.0435C64.5139 66.9076 65.577 65.0978 66.1937 64.0217C66.8105 62.9457 68.0491 60.8424 68.9462 59.3478C69.8433 57.8533 71.783 54.5761 73.2567 52.0652C74.7303 49.5543 76.2327 47.0109 76.5954 46.413C78.8846 42.6393 79.5652 41.4954 79.5652 41.4221C79.5652 41.3766 80.1187 40.4351 80.7952 39.3299C82.2897 36.8884 82.8092 35.5733 82.9733 33.8163C83.1613 31.8032 82.7637 30.4519 80.8476 26.5904C78.913 22.6916 77.9976 21.4867 76.09 20.3279C73.4218 18.7071 75.0806 18.8043 50.1087 18.8043C29.4353 18.8043 27.6275 18.8333 26.5452 19.1822C24.4476 19.8585 22.3542 21.2929 21.367 22.7306C20.4372 24.0845 17.6586 29.9045 17.3888 31.063C17.0686 32.4381 17.2107 34.679 17.7061 36.0665C17.8942 36.5933 18.4938 37.7672 19.0386 38.6752C19.5833 39.5832 20.1143 40.4728 20.2185 40.6522C21.402 42.6886 23.2363 45.7215 23.7028 46.413C24.0254 46.8913 24.5821 47.8207 24.9399 48.4783C25.2977 49.1359 26.2879 50.7989 27.1403 52.1739C27.9928 53.5489 28.9353 55.1141 29.2349 55.6522C29.5344 56.1902 30.0003 56.9917 30.2702 57.4333C30.5401 57.8749 31.3385 59.1956 32.0444 60.3681C32.7503 61.5407 33.5432 62.8424 33.8063 63.2609C35.0994 65.3175 36.7774 68.0896 37.5567 69.4565C38.662 71.3955 40.3819 74.2058 41.1464 75.3222C41.4724 75.7983 41.7391 76.3013 41.7391 76.44C41.7391 76.8908 43.7326 78.9233 44.9191 79.6823C45.5554 80.0893 46.592 80.5816 47.2228 80.7761C47.8535 80.9707 48.4674 81.1614 48.587 81.1999C49.2241 81.4054 51.8142 81.2595 52.841 80.9603Z" fill="#151619"/>
</svg>
