<?xml version="1.0" standalone="no"?>
<!DOCTYPE svg PUBLIC "-//W3C//DTD SVG 20010904//EN"
 "http://www.w3.org/TR/2001/REC-SVG-20010904/DTD/svg10.dtd">
<svg version="1.0" xmlns="http://www.w3.org/2000/svg"
 width="200.000000pt" height="200.000000pt" viewBox="0 0 200.000000 200.000000"
 preserveAspectRatio="xMidYMid meet">

<g transform="translate(0.000000,200.000000) scale(0.100000,-0.100000)"
fill="#000000" stroke="none">
<path d="M859 1647 c-102 -43 -173 -110 -218 -206 l-26 -56 -3 -339 -3 -339
51 43 c160 134 300 381 335 593 3 20 11 37 17 37 11 0 241 -60 332 -86 l49
-14 -6 55 c-12 121 -98 240 -216 298 -58 28 -77 32 -161 35 -81 2 -103 -1
-151 -21z"/>
<path d="M1030 1317 c0 -50 43 -187 90 -283 59 -121 147 -242 233 -318 l62
-56 -144 -144 -143 -144 55 -20 c112 -42 217 -37 320 15 234 118 289 426 108
613 -46 49 -102 86 -311 206 -140 80 -258 148 -262 151 -5 2 -8 -6 -8 -20z"/>
<path d="M394 987 c-220 -226 -103 -592 210 -657 64 -13 131 -8 197 16 43 14
522 286 547 309 11 10 2 17 -52 35 -199 66 -452 66 -645 1 -35 -12 -65 -20
-67 -18 -3 3 -57 195 -94 335 -6 23 -16 42 -22 42 -7 0 -40 -28 -74 -63z"/>
</g>
</svg>
