<svg width="100" height="100" viewBox="0 0 100 100" fill="none" xmlns="http://www.w3.org/2000/svg">
<path d="M21.7187 20.7789C24.5181 23.0531 25.5682 22.8795 30.8246 22.5289L80.3806 19.5533C81.4313 19.5533 80.5573 18.5047 80.2073 18.3305L71.9766 12.3807C70.4 11.1565 68.2986 9.75433 64.2722 10.1051L16.2872 13.6049C14.5373 13.7785 14.1877 14.6534 14.8847 15.3548L21.7187 20.7789ZM24.694 32.3278V84.4693C24.694 87.2713 26.0943 88.32 29.2462 88.1467L83.708 84.9953C86.8613 84.822 87.2126 82.894 87.2126 80.618V28.8265C87.2126 26.5537 86.3386 25.3281 84.408 25.503L27.4948 28.8265C25.3945 29.0029 24.694 30.0535 24.694 32.3278ZM78.4586 35.1248C78.808 36.7012 78.4586 38.2761 76.8793 38.4533L74.2553 38.9761V77.47C71.9766 78.6947 69.876 79.3947 68.1253 79.3947C65.3223 79.3947 64.6203 78.5193 62.5208 75.896L45.3563 48.9499V75.0213L50.7877 76.2467C50.7877 76.2467 50.7877 79.3947 46.4057 79.3947L34.3253 80.0953C33.9743 79.3947 34.3253 77.6467 35.5506 77.296L38.7031 76.4227V41.9517L34.326 41.601C33.975 40.0246 34.8493 37.7519 37.3027 37.5754L50.2623 36.7019L68.1253 63.9987V39.851L63.5709 39.3283C63.2213 37.4012 64.6203 36.0019 66.3717 35.8283L78.4586 35.1248ZM12.2583 8.8808L62.1704 5.20525C68.3 4.67955 69.8766 5.03169 73.7293 7.83013L89.6613 19.0283C92.2906 20.9539 93.1666 21.4782 93.1666 23.5774V84.9953C93.1666 88.844 91.7646 91.1207 86.862 91.4687L28.8995 94.9693C25.2194 95.1447 23.4679 94.62 21.5407 92.1687L9.80772 76.946C7.70532 74.144 6.83105 72.0473 6.83105 69.5947V15.0027C6.83105 11.855 8.23359 9.2294 12.2583 8.8808Z" fill="black"/>
</svg>
