<svg width="100" height="100" viewBox="0 0 100 100" fill="none" xmlns="http://www.w3.org/2000/svg">
<g clip-path="url(#clip0_175_65)">
<path d="M50.0313 0C52.8559 0.00518883 55.6338 0.243876 58.3342 0.695304V29.8047L78.9715 9.22058C81.2508 10.8395 83.3832 12.64 85.3546 14.6066C87.3271 16.5732 89.1376 18.7058 90.7605 20.9785L70.1223 41.5626H99.3078C99.7606 44.2556 100 47.0161 100 49.8388V49.9063C100 52.729 99.7606 55.4947 99.3078 58.1877H70.1173L90.7605 78.7666C89.1376 81.0393 87.3271 83.1719 85.3606 85.1385H85.3546C83.3832 87.1051 81.2508 88.9108 78.9774 90.5245L58.3342 69.9403V99.0498C55.6388 99.5013 52.8608 99.7396 50.0363 99.7456H49.9637C47.1382 99.7396 44.3712 99.5013 41.6707 99.0498V69.9403L21.0335 90.5245C16.4758 87.2918 12.4912 83.3121 9.24449 78.7666L29.8827 58.1877H0.69721C0.239356 55.4894 0 52.7134 0 49.8907V49.7458C0.00474433 49.0133 0.0527109 48.1184 0.121606 47.1926L0.14288 46.914C0.346874 44.3081 0.69721 41.5626 0.69721 41.5626H29.8827L9.24449 20.9785C10.8624 18.7058 12.668 16.5783 14.6394 14.617L14.6494 14.6066C16.6168 12.64 18.7542 10.8395 21.0335 9.22058L41.6707 29.8047V0.695304C44.3712 0.243876 47.1441 0.00518883 49.9737 0H50.0313ZM50.0263 37.4063H49.9786C46.2642 37.4063 42.7066 38.0861 39.4182 39.321C38.1857 42.5952 37.5034 46.1443 37.4984 49.8492V49.8958C37.5034 53.6007 38.1857 57.1499 39.4232 60.424C42.7066 61.659 46.2642 62.3388 49.9786 62.3388H50.0263C53.7408 62.3388 57.2984 61.659 60.5818 60.424C61.8193 57.1447 62.5016 53.6007 62.5016 49.8958V49.8492C62.5016 46.1443 61.8193 42.5952 60.5818 39.321C57.2984 38.0861 53.7408 37.4063 50.0263 37.4063Z" fill="#FF4A00"/>
</g>
<defs>
<clipPath id="clip0_175_65">
<rect width="100" height="100" fill="white"/>
</clipPath>
</defs>
</svg>
