<svg fill="none" height="24" viewBox="0 0 177 24" width="177" xmlns="http://www.w3.org/2000/svg" xmlns:xlink="http://www.w3.org/1999/xlink"><linearGradient id="a" gradientUnits="userSpaceOnUse" x1="3.77557" x2="5.23185" y1="5.91571" y2="21.5589"><stop offset="0" stop-color="#18e299"/><stop offset="1" stop-color="#15803d"/></linearGradient><linearGradient id="b" gradientUnits="userSpaceOnUse" x1="12.1711" x2="10.1897" y1="-.718425" y2="22.9832"><stop offset="0" stop-color="#16a34a"/><stop offset="1" stop-color="#4ade80"/></linearGradient><linearGradient id="c" gradientUnits="userSpaceOnUse" x1="23.1327" x2="9.33841" y1="15.353" y2="18.5196"><stop offset="0" stop-color="#4ade80"/><stop offset="1" stop-color="#0d9373"/></linearGradient><path d="m9.06145 23.1079c-3.79329-.731-12.45222-2.4805-7.64415-18.04406 8.2171 1.03555 15.5555 9.00056 7.64415 18.04406z" fill="url(#a)"/><path d="m8.91928 23.0939c-3.64286-1.8716-8.13557-18.88499 8.08782-23.0939 3.7498 7.19341 2.6141 16.5452-8.08782 23.0939z" fill="url(#b)"/><path d="m8.91388 23.0788c-.17854-3.1971 1.24462-13.99355 14.65602-9.9681-.3887 7.0122-4.5859 13.3075-14.65602 9.9681z" fill="url(#c)"/><path d="m32.3008 19.3922v-15.49788h5.6375l1.9867 6.05354c.1109.36754.2392.83904.3848 1.41454.1526.5756.3016 1.1892.4473 1.8411.1525.6518.2912 1.2793.416 1.8826.1318.5963.2392 1.106.3224 1.529h-.8009c.0763-.423.1769-.9327.3017-1.529.1317-.5964.2704-1.2204.416-1.8722.1526-.6519.3017-1.2655.4473-1.8411.1456-.5824.2739-1.0574.3848-1.42494l1.9555-6.05354h5.6479v15.49788h-3.6821v-6.688c0-.3467.0069-.787.0208-1.321.0139-.5339.0278-1.1129.0416-1.73697.0208-.62408.0382-1.25509.052-1.89304.0208-.63794.0312-1.23428.0312-1.78901h.3121c-.1387.59634-.2913 1.21694-.4577 1.86182s-.3328 1.27589-.4992 1.89303c-.1595.61717-.3156 1.18227-.4681 1.69537-.1456.5132-.2704.9431-.3744 1.2898l-2.2155 6.688h-3.0476l-2.2467-6.688c-.1109-.3467-.2427-.7766-.3952-1.2898-.1456-.5131-.3051-1.0748-.4785-1.68496-.1664-.61715-.3363-1.24816-.5096-1.89304-.1665-.64487-.3225-1.26895-.4681-1.87222h.3641c.0069.5478.0173 1.14067.0312 1.77861.0138.63101.0277 1.26202.0416 1.89303.0208.62408.0381 1.20308.052 1.73698.0138.534.0208.9778.0208 1.3314v6.688zm19.3676 0v-11.36857h3.6196v11.36857zm1.7994-12.60632c-.5408 0-.995-.16989-1.3625-.50967-.3676-.3467-.5513-.76969-.5513-1.26895s.1837-.91878.5513-1.25855c.3675-.33978.8217-.50967 1.3625-.50967.5409 0 .9951.16989 1.3626.50967.3675.33284.5513.75236.5513 1.25855 0 .49926-.1838.92225-.5513 1.26895-.3675.33978-.8217.50967-1.3626.50967zm7.2397 6.24072v6.3656h-3.6196v-11.36857h3.4636l.0416 2.94357h-.312c.312-.9431.7801-1.69889 1.4041-2.26749.6241-.57554 1.4527-.86331 2.4859-.86331.8044 0 1.5013.18029 2.0907.54087.5894.35364 1.0401.85637 1.3522 1.50818.3189.65185.4784 1.42155.4784 2.30905v7.1977h-3.6092v-6.48c0-.6518-.163-1.158-.4889-1.5186-.319-.3605-.7731-.5408-1.3625-.5408-.3814 0-.7177.0832-1.009.2496-.2912.1664-.5166.4126-.6761.7385-.1594.319-.2392.7142-.2392 1.1857zm15.748-5.00297v2.72517h-7.4474v-2.72517zm-5.7727-2.86035h3.6092v10.61972c0 .3189.0693.5512.208.6969.1456.1456.3987.2184.7593.2184.1456 0 .3363-.0104.5721-.0312.2427-.0208.4195-.0382.5304-.052l.2705 2.6939c-.319.0693-.6692.1179-1.0506.1456-.3744.0278-.7454.0416-1.1129.0416-1.2689 0-2.2189-.2739-2.8499-.8217-.6241-.5478-.9361-1.366-.9361-2.4547z" fill="#fafafa"/><path d="m88.6674 19.6522c-1.1442 0-2.1392-.1941-2.9852-.5824-.839-.3883-1.4943-.9327-1.9658-1.633-.4716-.7004-.7247-1.529-.7593-2.4859h1.9762c.0347.6448.215 1.1892.5409 1.633.3259.4368.7662.7697 1.3209.9985.5548.2219 1.1789.3328 1.8723.3328.7211 0 1.3591-.1144 1.9138-.3432.5617-.2288 1.002-.5478 1.321-.9569.3259-.4161.4888-.898.4888-1.4458 0-.4715-.1248-.8633-.3744-1.1753-.2497-.319-.6033-.586-1.061-.8009-.4576-.215-1.0019-.4057-1.6329-.5721l-1.8203-.4889c-1.3799-.3675-2.42-.8771-3.1204-1.529-.6934-.65871-1.0401-1.50814-1.0401-2.54827 0-.88064.2289-1.65033.6865-2.30908.4577-.65875 1.0887-1.16841 1.893-1.52899.8044-.36751 1.7232-.55126 2.7564-.55126 1.0401 0 1.9519.18722 2.7355.56167.7905.37444 1.4111.8945 1.8618 1.56019.4508.65874.69 1.4215.7177 2.28827h-1.9034c-.0763-.84597-.4334-1.50125-1.0713-1.96584-.6311-.47152-1.432-.70728-2.4027-.70728-.6657 0-1.2551.11095-1.7683.33284-.5061.22189-.9014.527-1.1857.91531-.2843.38138-.4264.81823-.4264 1.31056 0 .48539.1421.88757.4264 1.20655.2843.31203.6553.57207 1.1129.78009.4577.20114.95.37094 1.477.50964l1.633.4265c.5548.1387 1.0922.3224 1.6122.5512.527.2219.9985.4993 1.4146.8321.423.326.7593.7281 1.0089 1.2066.2496.4715.3745 1.0297.3745 1.6746 0 .8668-.2289 1.6399-.6865 2.3195-.4507.6795-1.0956 1.2135-1.9347 1.6018-.839.3883-1.841.5824-3.0059.5824zm12.4296-11.62857v1.57059h-5.9908v-1.57059zm-4.1602-2.86035h1.8306v11.35822c0 .4784.0971.8251.2913 1.0401.201.208.5408.312 1.0193.312.132 0 .288-.0069.468-.0208.187-.0208.357-.0381.51-.052l.229 1.5498c-.188.0416-.399.0728-.635.0936s-.461.0312-.676.0312c-.9778 0-1.7301-.2392-2.2571-.7177-.5201-.4854-.7801-1.1788-.7801-2.0802zm9.3932 14.45772c-.735 0-1.398-.1317-1.987-.3952-.589-.2704-1.058-.6622-1.404-1.1754-.347-.52-.52-1.1545-.52-1.9034 0-.6518.128-1.1823.385-1.5914.256-.4091.599-.7281 1.029-.9569.43-.2358.909-.4126 1.436-.5305.527-.1178 1.064-.2115 1.612-.2808.693-.0971 1.251-.1699 1.674-.2184.423-.0486.732-.1283.926-.2392.194-.1179.291-.3156.291-.5929v-.0832c0-.4508-.093-.8391-.28-1.165-.181-.3259-.451-.57898-.812-.75926-.36-.18029-.808-.27044-1.342-.27044-.533 0-.998.08668-1.393.26003-.389.17336-.704.39867-.947.67607-.243.2704-.405.5582-.489.8633l-1.799-.3432c.187-.6934.51-1.26551.967-1.71623.458-.45072 1.002-.78703 1.633-1.00892.631-.2219 1.297-.33284 1.997-.33284.493 0 .988.0624 1.488.18722.506.12482.97.33631 1.393.63448.423.29123.763.68995 1.02 1.19614.256.49925.385 1.13025.385 1.89305v7.6241h-1.8v-1.5706h-.093c-.132.2635-.337.5374-.614.8217-.277.2774-.642.5097-1.092.6969-.451.1872-1.006.2808-1.664.2808zm.291-1.6226c.7 0 1.283-.1317 1.747-.3952.472-.2704.822-.6171 1.051-1.0401.235-.43.353-.8807.353-1.3522v-1.5186c-.069.0763-.218.1491-.447.2184-.229.0625-.496.1214-.801.1769-.298.0554-.603.104-.915.1456-.305.0416-.576.0763-.811.104-.444.0555-.86.1525-1.249.2912-.381.1318-.689.3259-.925.5825s-.354.5998-.354 1.0297c0 .3745.097.6934.291.9569.201.2635.479.4646.832.6033.354.1318.763.1976 1.228.1976zm7.572 1.3938v-11.36857h1.758v1.76821h.094c.208-.58247.565-1.05053 1.071-1.40417s1.103-.53046 1.789-.53046c.153 0 .312.00693.479.0208.166.00693.298.01387.395.0208v1.84103c-.063-.02081-.201-.04508-.416-.07281-.208-.02774-.441-.04161-.697-.04161-.492 0-.94.10748-1.342.32244-.402.21494-.721.52354-.957.92574-.229.4022-.343.8841-.343 1.4458v7.0728zm12.129-11.36857v1.57059h-5.992v-1.57059zm-4.161-2.86035h1.831v11.35822c0 .4784.097.8251.291 1.0401.201.208.541.312 1.019.312.132 0 .288-.0069.468-.0208.188-.0208.357-.0381.51-.052l.229 1.5498c-.187.0416-.399.0728-.635.0936-.235.0208-.461.0312-.676.0312-.977 0-1.73-.2392-2.257-.7177-.52-.4854-.78-1.1788-.78-2.0802zm10.443 14.47852c-1.102 0-2.049-.2461-2.839-.7384-.791-.4993-1.401-1.1893-1.831-2.0699-.423-.8876-.634-1.9069-.634-3.058 0-1.1649.211-2.1912.634-3.0787.43-.89456 1.03-1.59491 1.8-2.1011.776-.5062 1.674-.7593 2.694-.7593.672 0 1.31.11789 1.913.35365.611.23576 1.148.59287 1.613 1.07133.471.47846.839 1.08172 1.102 1.80982.271.7212.406 1.5741.406 2.5587v.6657h-9.029v-1.5602h8.03l-.832.5617c0-.7559-.125-1.4215-.374-1.9971-.25-.5755-.614-1.0228-1.092-1.34174-.479-.3259-1.058-.48886-1.737-.48886-.68 0-1.266.16296-1.758.48886-.493.32594-.874.76624-1.144 1.32094-.264.5478-.396 1.1615-.396 1.841v.9258c0 .8182.143 1.5255.427 2.1218.284.5894.686 1.0436 1.206 1.3626.52.312 1.138.468 1.852.468.478 0 .908-.0693 1.29-.208.388-.1456.714-.3571.977-.6345.271-.2773.472-.6102.604-.9985l1.789.2913c-.167.631-.465 1.1857-.895 1.6642-.43.4784-.967.8529-1.612 1.1233s-1.366.4056-2.164.4056zm6.855-.2496v-11.36857h1.758v1.76821h.094c.208-.58247.565-1.05053 1.071-1.40417s1.103-.53046 1.789-.53046c.153 0 .312.00693.478.0208.167.00693.299.01387.396.0208v1.84103c-.063-.02081-.201-.04508-.416-.07281-.208-.02774-.441-.04161-.697-.04161-.493 0-.94.10748-1.342.32244-.402.21494-.721.52354-.957.92574-.229.4022-.343.8841-.343 1.4458v7.0728zm13.97-4.4309v-2.2467c.354-.4577.707-.8945 1.061-1.3106.354-.4229.714-.839 1.082-1.2481.367-.41606.742-.82865 1.123-1.23776l4.66-5.02382h2.538l-6.616 7.07288h-.093zm-1.321 4.4309v-15.49788h1.935v5.34626l-.021 3.31802.021.9465v5.8871zm9.507 0-5.648-7.9154 1.206-1.50814 6.73 9.42354zm4.046 0v-11.36857h1.831v11.36857zm.926-13.36562c-.347 0-.645-.11788-.895-.35364-.249-.24269-.374-.53393-.374-.87371 0-.33977.125-.62754.374-.8633.25-.2427.548-.36404.895-.36404s.645.12134.895.36404c.249.23576.374.52353.374.8633 0 .33978-.125.63102-.374.87371-.25.23576-.548.35364-.895.35364zm8.249 1.99705v1.57059h-5.992v-1.57059zm-4.161-2.86035h1.831v11.35822c0 .4784.097.8251.291 1.0401.201.208.541.312 1.019.312.132 0 .288-.0069.468-.0208.188-.0208.357-.0381.51-.052l.229 1.5498c-.187.0416-.399.0728-.635.0936-.235.0208-.461.0312-.676.0312-.977 0-1.73-.2392-2.257-.7177-.52-.4854-.78-1.1788-.78-2.0802z" fill="#9f9fa9"/></svg>