<svg width="24" height="24" viewBox="0 0 24 24" fill="none" xmlns="http://www.w3.org/2000/svg">
<path fill-rule="evenodd" clip-rule="evenodd" d="M18.3522 3.44018C18.8014 4.80075 19.1707 5.1709 20.5283 5.62109C21.1172 5.82117 21.1172 6.63151 20.5283 6.83159C19.1707 7.28178 18.8014 7.65194 18.3522 9.0125C18.1526 9.60275 17.344 9.60275 17.1444 9.0125C16.6952 7.65194 16.3259 7.28178 14.9683 6.83159C14.6789 6.74156 14.5291 6.49145 14.5291 6.23134C14.5291 5.97124 14.6789 5.72113 14.9683 5.62109C16.3259 5.1709 16.6952 4.80075 17.1444 3.44018C17.344 2.84994 18.1526 2.84994 18.3522 3.44018ZM15.9965 11.1234L18.0029 11.7036V11.6936C18.5818 11.8637 18.9911 12.4039 18.9911 13.0142C18.9911 13.6244 18.5818 14.1647 17.9929 14.3347L15.9865 14.905C14.4692 15.3451 13.3013 16.5056 12.8721 18.0263L12.2932 20.0371C12.1235 20.6073 11.6044 20.9975 10.9755 20.9975C10.3467 20.9975 9.82762 20.6173 9.65793 20.0371L9.07897 18.0263C8.63976 16.5056 7.48185 15.3351 5.96459 14.905L3.95822 14.3247C3.37926 14.1546 2.97 13.6144 2.97 13.0042C2.97 12.3939 3.37926 11.8537 3.9682 11.6836L5.97458 11.1134C7.49184 10.6732 8.65973 9.51271 9.08895 7.99208L9.66791 5.98124C9.8376 5.401 10.3766 4.99083 10.9855 4.99083C11.5944 4.99083 12.1335 5.401 12.3031 5.98124L12.8821 8.00208C13.3213 9.52272 14.4792 10.6932 15.9965 11.1234Z" fill="#DEDEE6"/>
</svg>
