<svg width="41" height="40" viewBox="0 0 41 40" fill="none" xmlns="http://www.w3.org/2000/svg">
<path d="M0.5 20C0.5 12.5231 0.5 8.78461 2.10769 6C3.16091 4.17577 4.67577 2.66091 6.5 1.60769C9.28461 0 13.0231 0 20.5 0C27.9769 0 31.7154 0 34.5 1.60769C36.3242 2.66091 37.8391 4.17577 38.8923 6C40.5 8.78461 40.5 12.5231 40.5 20C40.5 27.4769 40.5 31.2154 38.8923 34C37.8391 35.8242 36.3242 37.3391 34.5 38.3923C31.7154 40 27.9769 40 20.5 40C13.0231 40 9.28461 40 6.5 38.3923C4.67577 37.3391 3.16091 35.8242 2.10769 34C0.5 31.2154 0.5 27.4769 0.5 20Z" fill="#333333"/>
<path d="M20.5 30C26 30 30.5 25.5 30.5 20C30.5 14.5 26 10 20.5 10C15 10 10.5 14.5 10.5 20C10.5 25.5 15 30 20.5 30Z" stroke="#ACACAC" stroke-width="1.5" stroke-linecap="round" stroke-linejoin="round"/>
<path d="M16.25 20L19.08 22.83L24.75 17.17" stroke="#FDFDFD" stroke-width="1.5" stroke-linecap="round" stroke-linejoin="round"/>
</svg>
