<svg width="40" height="40" viewBox="0 0 40 40" fill="none" xmlns="http://www.w3.org/2000/svg">
<rect width="40" height="40" rx="10" fill="#414040"/>
<path opacity="0.4" d="M29 30.75H11C10.59 30.75 10.25 30.41 10.25 30C10.25 29.59 10.59 29.25 11 29.25H29C29.41 29.25 29.75 29.59 29.75 30C29.75 30.41 29.41 30.75 29 30.75Z" fill="white"/>
<path d="M13.6 16.38H12C11.45 16.38 11 16.83 11 17.38V26C11 26.55 11.45 27 12 27H13.6C14.15 27 14.6 26.55 14.6 26V17.38C14.6 16.82 14.15 16.38 13.6 16.38Z" fill="white"/>
<path d="M20.7999 13.19H19.2C18.65 13.19 18.2 13.64 18.2 14.19V26C18.2 26.55 18.65 27 19.2 27H20.7999C21.3499 27 21.7999 26.55 21.7999 26V14.19C21.7999 13.64 21.3499 13.19 20.7999 13.19Z" fill="white"/>
<path d="M27.9999 10H26.3999C25.8499 10 25.3999 10.45 25.3999 11V26C25.3999 26.55 25.8499 27 26.3999 27H27.9999C28.5499 27 28.9999 26.55 28.9999 26V11C28.9999 10.45 28.5499 10 27.9999 10Z" fill="white"/>
</svg>
