<svg width="30" height="28" viewBox="0 0 30 28" fill="none" xmlns="http://www.w3.org/2000/svg">
<path d="M5.37539 27.1501C4.85872 27.1501 4.52539 26.9876 4.37539 26.6626C4.22539 26.3459 4.29622 26.0001 4.58789 25.6251C4.76289 25.4084 4.99622 25.1251 5.28789 24.7751C5.57956 24.4251 5.88372 24.0418 6.20039 23.6251C6.51706 23.2084 6.80039 22.7918 7.05039 22.3751C7.10872 22.2501 7.12122 22.1418 7.08789 22.0501C7.05456 21.9501 6.97539 21.8668 6.85039 21.8001C5.46706 21.0501 4.28372 20.1584 3.30039 19.1251C2.32539 18.0834 1.57956 16.9501 1.06289 15.7251C0.554558 14.4918 0.300391 13.2043 0.300391 11.8626C0.300391 10.2126 0.679558 8.67093 1.43789 7.2376C2.19622 5.80426 3.24622 4.54593 4.58789 3.4626C5.92956 2.37926 7.48789 1.53343 9.26289 0.925097C11.0462 0.308431 12.9587 9.73195e-05 15.0004 9.73195e-05C17.0337 9.73195e-05 18.9379 0.308431 20.7129 0.925097C22.4962 1.53343 24.0587 2.37926 25.4004 3.4626C26.7504 4.54593 27.8004 5.80426 28.5504 7.2376C29.3087 8.67093 29.6879 10.2126 29.6879 11.8626C29.6879 13.2626 29.4337 14.5709 28.9254 15.7876C28.4254 17.0043 27.7046 18.1001 26.7629 19.0751C25.8212 20.0418 24.6962 20.8709 23.3879 21.5626C22.0879 22.2543 20.6421 22.7834 19.0504 23.1501C17.4587 23.5168 15.7587 23.7043 13.9504 23.7126C13.8921 23.7126 13.8254 23.7084 13.7504 23.7001C13.6837 23.7001 13.6129 23.6959 13.5379 23.6876C13.4296 23.6876 13.3212 23.7043 13.2129 23.7376C13.1046 23.7709 12.9879 23.8334 12.8629 23.9251C12.2712 24.3418 11.6212 24.7418 10.9129 25.1251C10.2129 25.5084 9.50872 25.8543 8.80039 26.1626C8.10039 26.4709 7.45039 26.7126 6.85039 26.8876C6.25039 27.0626 5.75872 27.1501 5.37539 27.1501Z" fill="url(#paint0_linear_1139_3031)"/>
<defs>
<linearGradient id="paint0_linear_1139_3031" x1="10.5461" y1="3.72317" x2="3.20825" y2="51.8606" gradientUnits="userSpaceOnUse">
<stop stop-color="white"/>
<stop offset="1" stop-color="white" stop-opacity="0"/>
</linearGradient>
</defs>
</svg>
