<svg width="40" height="40" viewBox="0 0 40 40" fill="none" xmlns="http://www.w3.org/2000/svg">
<path d="M0 20C0 12.5231 0 8.78461 1.60769 6C2.66091 4.17577 4.17577 2.66091 6 1.60769C8.78461 0 12.5231 0 20 0C27.4769 0 31.2154 0 34 1.60769C35.8242 2.66091 37.3391 4.17577 38.3923 6C40 8.78461 40 12.5231 40 20C40 27.4769 40 31.2154 38.3923 34C37.3391 35.8242 35.8242 37.3391 34 38.3923C31.2154 40 27.4769 40 20 40C12.5231 40 8.78461 40 6 38.3923C4.17577 37.3391 2.66091 35.8242 1.60769 34C0 31.2154 0 27.4769 0 20Z" fill="#333333"/>
<path opacity="0.4" d="M20 29.93C14.96 29.93 10.85 25.83 10.85 20.78V18.9C10.85 18.51 11.17 18.2 11.55 18.2C11.93 18.2 12.25 18.52 12.25 18.9V20.78C12.25 25.05 15.72 28.52 19.99 28.52C24.26 28.52 27.73 25.05 27.73 20.78V18.9C27.73 18.51 28.05 18.2 28.43 18.2C28.81 18.2 29.13 18.52 29.13 18.9V20.78C29.15 25.83 25.04 29.93 20 29.93Z" fill="#F0F0F0"/>
<path d="M20 10C16.64 10 13.9 12.74 13.9 16.1V20.79C13.9 24.15 16.64 26.89 20 26.89C23.36 26.89 26.1 24.15 26.1 20.79V16.1C26.1 12.74 23.36 10 20 10ZM22.18 18.59C22.11 18.86 21.86 19.04 21.59 19.04C21.54 19.04 21.48 19.03 21.43 19.02C20.41 18.74 19.33 18.74 18.31 19.02C17.98 19.11 17.65 18.92 17.56 18.59C17.47 18.27 17.66 17.93 17.99 17.84C19.22 17.5 20.52 17.5 21.75 17.84C22.08 17.93 22.27 18.26 22.18 18.59ZM23.03 15.82C22.94 16.07 22.71 16.22 22.46 16.22C22.39 16.22 22.32 16.21 22.25 16.18C20.72 15.62 19.04 15.62 17.51 16.18C17.19 16.3 16.84 16.14 16.72 15.82C16.61 15.51 16.77 15.16 17.09 15.04C18.89 14.39 20.87 14.39 22.66 15.04C22.98 15.16 23.14 15.51 23.03 15.82Z" fill="#F0F0F0"/>
</svg>
