<svg width="40" height="40" viewBox="0 0 40 40" fill="none" xmlns="http://www.w3.org/2000/svg">
<rect width="40" height="40" rx="10" fill="#414040"/>
<path opacity="0.4" d="M27.3 15.92V21.07C27.3 24.15 25.54 25.47 22.9 25.47H14.11C13.66 25.47 13.23 25.43 12.83 25.34C12.58 25.3 12.34 25.23 12.12 25.15C10.62 24.59 9.70996 23.29 9.70996 21.07V15.92C9.70996 12.84 11.47 11.52 14.11 11.52H22.9C25.14 11.52 26.75 12.47 27.18 14.64C27.25 15.04 27.3 15.45 27.3 15.92Z" fill="white"/>
<path d="M30.3001 18.92V24.07C30.3001 27.15 28.5401 28.47 25.9001 28.47H17.1101C16.3701 28.47 15.7001 28.37 15.1201 28.15C13.9301 27.71 13.1201 26.8 12.8301 25.34C13.2301 25.43 13.6601 25.47 14.1101 25.47H22.9001C25.5401 25.47 27.3001 24.15 27.3001 21.07V15.92C27.3001 15.45 27.2601 15.03 27.1801 14.64C29.0801 15.04 30.3001 16.38 30.3001 18.92Z" fill="white"/>
<path d="M18.4999 21.14C19.9579 21.14 21.1399 19.958 21.1399 18.5C21.1399 17.042 19.9579 15.86 18.4999 15.86C17.0418 15.86 15.8599 17.042 15.8599 18.5C15.8599 19.958 17.0418 21.14 18.4999 21.14Z" fill="white"/>
<path d="M12.78 16.25C12.37 16.25 12.03 16.59 12.03 17V20C12.03 20.41 12.37 20.75 12.78 20.75C13.19 20.75 13.53 20.41 13.53 20V17C13.53 16.59 13.2 16.25 12.78 16.25Z" fill="white"/>
<path d="M24.21 16.25C23.8 16.25 23.46 16.59 23.46 17V20C23.46 20.41 23.8 20.75 24.21 20.75C24.62 20.75 24.96 20.41 24.96 20V17C24.96 16.59 24.63 16.25 24.21 16.25Z" fill="white"/>
</svg>
