<svg width="34" height="34" viewBox="0 0 34 34" fill="none" xmlns="http://www.w3.org/2000/svg">
<path d="M17 33.0156C14.75 33.0156 12.6406 32.5885 10.6719 31.7344C8.70312 30.8906 6.96875 29.724 5.46875 28.2344C3.97917 26.7448 2.8125 25.0156 1.96875 23.0469C1.125 21.0781 0.703125 18.9688 0.703125 16.7188C0.703125 14.4688 1.125 12.3594 1.96875 10.3906C2.8125 8.42188 3.97917 6.69271 5.46875 5.20312C6.96875 3.70312 8.70312 2.53125 10.6719 1.6875C12.6406 0.84375 14.75 0.421875 17 0.421875C19.25 0.421875 21.3594 0.84375 23.3281 1.6875C25.2969 2.53125 27.026 3.70312 28.5156 5.20312C30.0052 6.69271 31.1719 8.42188 32.0156 10.3906C32.8698 12.3594 33.2969 14.4688 33.2969 16.7188C33.2969 18.9688 32.8698 21.0781 32.0156 23.0469C31.1719 25.0156 30.0052 26.7448 28.5156 28.2344C27.026 29.724 25.2969 30.8906 23.3281 31.7344C21.3594 32.5885 19.25 33.0156 17 33.0156ZM17 29.4375C18.7604 29.4375 20.4062 29.1094 21.9375 28.4531C23.4792 27.7969 24.8281 26.8854 25.9844 25.7188C27.151 24.5417 28.0625 23.1875 28.7188 21.6562C29.3854 20.1146 29.7188 18.4688 29.7188 16.7188C29.7188 14.9583 29.3854 13.3125 28.7188 11.7812C28.0625 10.2396 27.151 8.88542 25.9844 7.71875C24.8281 6.55208 23.4792 5.64062 21.9375 4.98438C20.4062 4.32812 18.7604 4 17 4C15.2396 4 13.5885 4.32812 12.0469 4.98438C10.5156 5.64062 9.16667 6.55208 8 7.71875C6.83333 8.88542 5.92188 10.2396 5.26562 11.7812C4.60938 13.3125 4.28125 14.9583 4.28125 16.7188C4.28125 18.4688 4.60938 20.1146 5.26562 21.6562C5.92188 23.1875 6.83333 24.5417 8 25.7188C9.16667 26.8854 10.5156 27.7969 12.0469 28.4531C13.5885 29.1094 15.2396 29.4375 17 29.4375ZM27.2188 27.0469C26.1979 27.9219 25.0833 28.6562 23.875 29.25C22.6771 29.8542 21.4792 30.3073 20.2812 30.6094C19.0833 30.9219 17.9896 31.0781 17 31.0781C16.0312 31.0781 14.9427 30.9219 13.7344 30.6094C12.5365 30.3073 11.3333 29.8542 10.125 29.25C8.91667 28.6562 7.80729 27.9219 6.79688 27.0469L6.85938 26.7031C7.24479 25.9427 7.90625 25.2188 8.84375 24.5312C9.78125 23.8333 10.9427 23.2656 12.3281 22.8281C13.7135 22.3906 15.2708 22.1719 17 22.1719C18.75 22.1719 20.3177 22.3906 21.7031 22.8281C23.0885 23.2656 24.2448 23.8333 25.1719 24.5312C26.1094 25.2188 26.7708 25.9479 27.1562 26.7188L27.2188 27.0469ZM17 19.6562C15.9896 19.6458 15.0781 19.3802 14.2656 18.8594C13.4531 18.3385 12.8073 17.6354 12.3281 16.75C11.8594 15.8542 11.6198 14.849 11.6094 13.7344C11.599 12.6823 11.8333 11.7188 12.3125 10.8438C12.8021 9.96875 13.4531 9.26562 14.2656 8.73438C15.0885 8.20312 16 7.9375 17 7.9375C18.0104 7.9375 18.9219 8.20312 19.7344 8.73438C20.5469 9.26562 21.1927 9.96875 21.6719 10.8438C22.1615 11.7188 22.4062 12.6823 22.4062 13.7344C22.4062 14.849 22.1667 15.8542 21.6875 16.75C21.2083 17.6458 20.5625 18.3594 19.75 18.8906C18.9375 19.4115 18.0208 19.6667 17 19.6562Z" fill="url(#paint0_linear_1139_2887)"/>
<defs>
<linearGradient id="paint0_linear_1139_2887" x1="11.4321" y1="5.15385" x2="2.25982" y2="65.3257" gradientUnits="userSpaceOnUse">
<stop stop-color="white"/>
<stop offset="1" stop-color="white" stop-opacity="0"/>
</linearGradient>
</defs>
</svg>
