<svg width="36" height="40" viewBox="0 0 36 40" fill="none" xmlns="http://www.w3.org/2000/svg">
<g filter="url(#filter0_d_1803_1645)">
<path d="M17.6 31.0125C15.8 31.0125 14.1125 30.6708 12.5375 29.9875C10.9625 29.3125 9.575 28.3792 8.375 27.1875C7.18333 25.9958 6.25 24.6125 5.575 23.0375C4.9 21.4625 4.5625 19.775 4.5625 17.975C4.5625 16.175 4.9 14.4875 5.575 12.9125C6.25 11.3375 7.18333 9.95417 8.375 8.7625C9.575 7.5625 10.9625 6.625 12.5375 5.95C14.1125 5.275 15.8 4.9375 17.6 4.9375C19.4 4.9375 21.0875 5.275 22.6625 5.95C24.2375 6.625 25.6208 7.5625 26.8125 8.7625C28.0042 9.95417 28.9375 11.3375 29.6125 12.9125C30.2958 14.4875 30.6375 16.175 30.6375 17.975C30.6375 19.775 30.2958 21.4625 29.6125 23.0375C28.9375 24.6125 28.0042 25.9958 26.8125 27.1875C25.6208 28.3792 24.2375 29.3125 22.6625 29.9875C21.0875 30.6708 19.4 31.0125 17.6 31.0125ZM17.6 28.15C19.0083 28.15 20.325 27.8875 21.55 27.3625C22.7833 26.8375 23.8625 26.1083 24.7875 25.175C25.7208 24.2333 26.45 23.15 26.975 21.925C27.5083 20.6917 27.775 19.375 27.775 17.975C27.775 16.5667 27.5083 15.25 26.975 14.025C26.45 12.7917 25.7208 11.7083 24.7875 10.775C23.8625 9.84167 22.7833 9.1125 21.55 8.5875C20.325 8.0625 19.0083 7.8 17.6 7.8C16.1917 7.8 14.8708 8.0625 13.6375 8.5875C12.4125 9.1125 11.3333 9.84167 10.4 10.775C9.46667 11.7083 8.7375 12.7917 8.2125 14.025C7.6875 15.25 7.425 16.5667 7.425 17.975C7.425 19.375 7.6875 20.6917 8.2125 21.925C8.7375 23.15 9.46667 24.2333 10.4 25.175C11.3333 26.1083 12.4125 26.8375 13.6375 27.3625C14.8708 27.8875 16.1917 28.15 17.6 28.15ZM25.775 26.2375C24.9583 26.9375 24.0667 27.525 23.1 28C22.1417 28.4833 21.1833 28.8458 20.225 29.0875C19.2667 29.3375 18.3917 29.4625 17.6 29.4625C16.825 29.4625 15.9542 29.3375 14.9875 29.0875C14.0292 28.8458 13.0667 28.4833 12.1 28C11.1333 27.525 10.2458 26.9375 9.4375 26.2375L9.4875 25.9625C9.79583 25.3542 10.325 24.775 11.075 24.225C11.825 23.6667 12.7542 23.2125 13.8625 22.8625C14.9708 22.5125 16.2167 22.3375 17.6 22.3375C19 22.3375 20.2542 22.5125 21.3625 22.8625C22.4708 23.2125 23.3958 23.6667 24.1375 24.225C24.8875 24.775 25.4167 25.3583 25.725 25.975L25.775 26.2375ZM17.6 20.325C16.7917 20.3167 16.0625 20.1042 15.4125 19.6875C14.7625 19.2708 14.2458 18.7083 13.8625 18C13.4875 17.2833 13.2958 16.4792 13.2875 15.5875C13.2792 14.7458 13.4667 13.975 13.85 13.275C14.2417 12.575 14.7625 12.0125 15.4125 11.5875C16.0708 11.1625 16.8 10.95 17.6 10.95C18.4083 10.95 19.1375 11.1625 19.7875 11.5875C20.4375 12.0125 20.9542 12.575 21.3375 13.275C21.7292 13.975 21.925 14.7458 21.925 15.5875C21.925 16.4792 21.7333 17.2833 21.35 18C20.9667 18.7167 20.45 19.2875 19.8 19.7125C19.15 20.1292 18.4167 20.3333 17.6 20.325Z" fill="url(#paint0_linear_1803_1645)" shape-rendering="crispEdges"/>
</g>
<defs>
<filter id="filter0_d_1803_1645" x="0.5625" y="4.9375" width="34.0752" height="34.075" filterUnits="userSpaceOnUse" color-interpolation-filters="sRGB">
<feFlood flood-opacity="0" result="BackgroundImageFix"/>
<feColorMatrix in="SourceAlpha" type="matrix" values="0 0 0 0 0 0 0 0 0 0 0 0 0 0 0 0 0 0 127 0" result="hardAlpha"/>
<feOffset dy="4"/>
<feGaussianBlur stdDeviation="2"/>
<feComposite in2="hardAlpha" operator="out"/>
<feColorMatrix type="matrix" values="0 0 0 0 0 0 0 0 0 0 0 0 0 0 0 0 0 0 0.25 0"/>
<feBlend mode="normal" in2="BackgroundImageFix" result="effect1_dropShadow_1803_1645"/>
<feBlend mode="normal" in="SourceGraphic" in2="effect1_dropShadow_1803_1645" result="shape"/>
</filter>
<linearGradient id="paint0_linear_1803_1645" x1="13.1457" y1="8.12308" x2="5.80786" y2="56.2605" gradientUnits="userSpaceOnUse">
<stop stop-color="white"/>
<stop offset="1" stop-color="white" stop-opacity="0"/>
</linearGradient>
</defs>
</svg>
