<svg width="44" height="44" viewBox="0 0 44 44" fill="none" xmlns="http://www.w3.org/2000/svg">
<path d="M22 34.2883C21.8747 34.2883 21.7495 34.2844 21.6242 34.2765C21.5068 34.2765 21.3893 34.2726 21.2719 34.2648L20.6377 35.4157C20.5359 35.6114 20.395 35.7563 20.2149 35.8502C20.0427 35.9442 19.8509 35.9716 19.6395 35.9324C19.4203 35.8933 19.2402 35.7993 19.0993 35.6506C18.9662 35.5096 18.884 35.3257 18.8526 35.0986L18.6647 33.8068C18.1715 33.6659 17.7135 33.5014 17.2907 33.3135L16.316 34.1708C16.1437 34.3196 15.9597 34.4057 15.764 34.4292C15.5683 34.4605 15.3765 34.4214 15.1886 34.3118C15.0007 34.2022 14.8676 34.0534 14.7893 33.8655C14.711 33.6854 14.6914 33.4858 14.7305 33.2666L15.0007 31.9982C14.8128 31.8495 14.6209 31.6968 14.4252 31.5402C14.2373 31.3836 14.0572 31.2153 13.885 31.0352L12.6754 31.5285C12.2213 31.7007 11.8533 31.6146 11.5714 31.2701C11.4305 31.1057 11.3522 30.9217 11.3366 30.7181C11.3209 30.5146 11.3757 30.3189 11.501 30.131L12.1939 29.027C12.0529 28.8235 11.9199 28.616 11.7946 28.4046C11.6771 28.1932 11.5636 27.9779 11.454 27.7587L10.1504 27.7822C9.93122 27.79 9.73549 27.743 9.56325 27.6413C9.39883 27.5395 9.2814 27.3868 9.21093 27.1832C9.14047 26.9719 9.12873 26.7722 9.1757 26.5843C9.23051 26.3886 9.34794 26.2202 9.52802 26.0793L10.5497 25.2807C10.4949 25.0459 10.444 24.811 10.3971 24.5761C10.3579 24.3334 10.3266 24.0829 10.3031 23.8245L9.05826 23.4252C8.83904 23.3547 8.67072 23.2412 8.55328 23.0846C8.43584 22.9202 8.37712 22.7323 8.37712 22.5209C8.37712 22.3017 8.43584 22.1138 8.55328 21.9572C8.67072 21.7928 8.83904 21.6754 9.05826 21.6049L10.3031 21.2056C10.3266 20.9551 10.3579 20.7124 10.3971 20.4775C10.444 20.2348 10.4949 19.9921 10.5497 19.7494L9.52802 18.9391C9.14438 18.6415 9.03869 18.2814 9.21093 17.8586C9.2814 17.6551 9.39883 17.4985 9.56325 17.3889C9.73549 17.2793 9.93122 17.2284 10.1504 17.2362L11.454 17.2832C11.5636 17.0561 11.6771 16.8369 11.7946 16.6255C11.9199 16.4141 12.0529 16.2066 12.1939 16.0031L11.501 14.8992C11.2505 14.4842 11.27 14.1084 11.5597 13.7718C11.7085 13.6073 11.8768 13.4977 12.0647 13.4429C12.2604 13.3881 12.464 13.4038 12.6754 13.4899L13.8732 13.9831C14.0611 13.8187 14.2451 13.6582 14.4252 13.5016C14.6131 13.3451 14.8049 13.1924 15.0007 13.0436L14.754 11.7636C14.7071 11.5443 14.7188 11.3447 14.7893 11.1646C14.8676 10.9767 15.0007 10.828 15.1886 10.7183C15.3765 10.6166 15.5722 10.5735 15.7758 10.5892C15.9793 10.6048 16.1633 10.6909 16.3277 10.8475L17.2907 11.7283C17.5099 11.6265 17.7331 11.5326 17.9601 11.4465C18.195 11.3603 18.4299 11.2821 18.6647 11.2116L18.8644 9.91977C18.8957 9.70055 18.9779 9.52047 19.111 9.37955C19.2441 9.23079 19.4203 9.13684 19.6395 9.0977C19.8509 9.06638 20.0466 9.09378 20.2267 9.1799C20.4067 9.26602 20.5477 9.41086 20.6495 9.61443L21.2719 10.7653C21.3893 10.7575 21.5068 10.7536 21.6242 10.7536C21.7495 10.7458 21.8747 10.7418 22 10.7418C22.1253 10.7418 22.2466 10.7458 22.3641 10.7536C22.4893 10.7536 22.6107 10.7575 22.7281 10.7653L23.3623 9.61443C23.4719 9.41869 23.6128 9.27385 23.7851 9.1799C23.9573 9.08595 24.153 9.05855 24.3723 9.0977C24.5758 9.14467 24.7481 9.23862 24.889 9.37955C25.0299 9.52047 25.116 9.70055 25.1474 9.91977L25.3235 11.2116C25.5662 11.2821 25.8011 11.3603 26.0281 11.4465C26.263 11.5326 26.4901 11.6226 26.7093 11.7166L27.684 10.8593C27.8563 10.7105 28.0403 10.6244 28.236 10.6009C28.4317 10.5696 28.6235 10.6127 28.8114 10.7301C28.9993 10.8319 29.1324 10.9767 29.2107 11.1646C29.2969 11.3447 29.3164 11.5443 29.2695 11.7636L28.9876 13.0436C29.1833 13.1846 29.3751 13.3333 29.563 13.4899C29.7509 13.6465 29.9349 13.8109 30.115 13.9831L31.3364 13.5016C31.7905 13.3294 32.1545 13.4155 32.4286 13.76C32.5695 13.9323 32.6478 14.1202 32.6634 14.3237C32.6791 14.5194 32.6243 14.7152 32.499 14.9109L31.8179 16.0031C31.951 16.2066 32.0762 16.4141 32.1937 16.6255C32.3189 16.8369 32.4364 17.0522 32.546 17.2714L33.8496 17.2479C34.0766 17.2401 34.2723 17.2871 34.4368 17.3889C34.6012 17.4906 34.7186 17.6472 34.7891 17.8586C34.8674 18.0622 34.8791 18.2618 34.8243 18.4576C34.7695 18.6533 34.6521 18.8177 34.472 18.9508L33.4385 19.7494C33.5012 19.9843 33.552 20.223 33.5912 20.4658C33.6382 20.7085 33.6773 20.9551 33.7086 21.2056L34.9417 21.6049C35.1531 21.6754 35.3175 21.7928 35.435 21.9572C35.5602 22.1138 35.6229 22.3017 35.6229 22.5209C35.6229 22.7323 35.5602 22.9202 35.435 23.0846C35.3175 23.2412 35.1531 23.3547 34.9417 23.4252L33.7086 23.8245C33.6773 24.0829 33.6382 24.3334 33.5912 24.5761C33.552 24.811 33.5012 25.0459 33.4385 25.2807L34.472 26.0911C34.6521 26.232 34.7695 26.3964 34.8243 26.5843C34.8869 26.7722 34.8791 26.9679 34.8008 27.1715C34.7225 27.3751 34.6012 27.5356 34.4368 27.653C34.2723 27.7626 34.0766 27.8135 33.8496 27.8057L32.5577 27.7587C32.4403 27.9701 32.3189 28.1854 32.1937 28.4046C32.0762 28.616 31.951 28.8235 31.8179 29.027L32.499 30.1427C32.6165 30.3306 32.6713 30.5263 32.6634 30.7299C32.6556 30.9256 32.5773 31.1057 32.4286 31.2701C32.2955 31.4345 32.131 31.5402 31.9353 31.5872C31.7396 31.642 31.536 31.6263 31.3246 31.5402L30.115 31.047C29.9428 31.2114 29.7627 31.3719 29.5748 31.5285C29.3869 31.6929 29.1912 31.8456 28.9876 31.9865L29.2577 33.2666C29.2969 33.4936 29.2773 33.6972 29.199 33.8772C29.1285 34.0573 28.9993 34.2022 28.8114 34.3118C28.6235 34.4135 28.4278 34.4566 28.2242 34.441C28.0207 34.4253 27.8406 34.3392 27.684 34.1826L26.7093 33.3135C26.4901 33.4075 26.263 33.4975 26.0281 33.5836C25.8011 33.6698 25.5662 33.7441 25.3235 33.8068L25.1356 35.1104C25.1043 35.3296 25.0221 35.5136 24.889 35.6623C24.7559 35.8111 24.5797 35.9011 24.3605 35.9324C24.1491 35.9637 23.9534 35.9363 23.7733 35.8502C23.5933 35.7641 23.4523 35.6232 23.3505 35.4274L22.7281 34.2648C22.6107 34.2726 22.4893 34.2765 22.3641 34.2765C22.2466 34.2844 22.1253 34.2883 22 34.2883ZM22 31.458C23.237 31.458 24.3918 31.227 25.4644 30.7651C26.5449 30.2954 27.4961 29.6534 28.3182 28.8391C29.1403 28.0171 29.7823 27.0697 30.2442 25.9971C30.7061 24.9167 30.9371 23.758 30.9371 22.5209C30.9371 21.2839 30.7061 20.1252 30.2442 19.0447C29.7823 17.9643 29.1403 17.017 28.3182 16.2027C27.4961 15.3807 26.5449 14.7387 25.4644 14.2767C24.3918 13.8148 23.237 13.5839 22 13.5839C20.7708 13.5839 19.6121 13.8148 18.5238 14.2767C17.4434 14.7387 16.4921 15.3807 15.6701 16.2027C14.8558 17.017 14.2177 17.9643 13.7558 19.0447C13.2939 20.1252 13.0629 21.2839 13.0629 22.5209C13.0629 23.758 13.2939 24.9167 13.7558 25.9971C14.2177 27.0697 14.8558 28.0171 15.6701 28.8391C16.4921 29.6534 17.4434 30.2954 18.5238 30.7651C19.6121 31.227 20.7708 31.458 22 31.458ZM19.4046 20.4892L15.6583 14.0536L17.8192 12.9849L21.448 19.2209L19.4046 20.4892ZM25.0769 23.7071V21.2761H32.3229V23.7071H25.0769ZM21.4246 25.821L17.6665 32.0217L15.5291 30.8943L19.4164 24.5056L21.4246 25.821ZM22 26.138C21.3345 26.138 20.7277 25.9775 20.1797 25.6565C19.6317 25.3277 19.1932 24.8893 18.8644 24.3412C18.5434 23.7932 18.3829 23.1864 18.3829 22.5209C18.3829 21.8476 18.5434 21.2369 18.8644 20.6889C19.1932 20.1408 19.6317 19.7063 20.1797 19.3853C20.7277 19.0565 21.3345 18.8921 22 18.8921C22.6733 18.8921 23.284 19.0565 23.832 19.3853C24.3801 19.7063 24.8146 20.1408 25.1356 20.6889C25.4644 21.2369 25.6289 21.8476 25.6289 22.5209C25.6289 23.1864 25.4644 23.7932 25.1356 24.3412C24.8146 24.8893 24.3801 25.3277 23.832 25.6565C23.284 25.9775 22.6733 26.138 22 26.138ZM22 23.8715C22.3758 23.8715 22.6968 23.7384 22.963 23.4722C23.2292 23.206 23.3623 22.8889 23.3623 22.5209C23.3623 22.1451 23.2292 21.8241 22.963 21.5579C22.6968 21.2917 22.3758 21.1586 22 21.1586C21.632 21.1586 21.3149 21.2917 21.0487 21.5579C20.7826 21.8241 20.6495 22.1451 20.6495 22.5209C20.6495 22.8889 20.7826 23.206 21.0487 23.4722C21.3149 23.7384 21.632 23.8715 22 23.8715Z" fill="white" fill-opacity="0.66"/>
</svg>
