<svg width="40" height="40" viewBox="0 0 40 40" fill="none" xmlns="http://www.w3.org/2000/svg">
<rect width="40" height="40" rx="10" fill="#414040"/>
<path opacity="0.4" d="M17 10C14.38 10 12.25 12.13 12.25 14.75C12.25 17.32 14.26 19.4 16.88 19.49C16.96 19.48 17.04 19.48 17.1 19.49C17.12 19.49 17.13 19.49 17.15 19.49C17.16 19.49 17.16 19.49 17.17 19.49C19.73 19.4 21.74 17.32 21.75 14.75C21.75 12.13 19.62 10 17 10Z" fill="white"/>
<path d="M22.08 22.15C19.29 20.29 14.74 20.29 11.93 22.15C10.66 23 9.95996 24.15 9.95996 25.38C9.95996 26.61 10.66 27.75 11.92 28.59C13.32 29.53 15.16 30 17 30C18.84 30 20.68 29.53 22.08 28.59C23.34 27.74 24.04 26.6 24.04 25.36C24.03 24.13 23.34 22.99 22.08 22.15Z" fill="white"/>
<path opacity="0.4" d="M27.9901 15.34C28.1501 17.28 26.7701 18.98 24.8601 19.21C24.8501 19.21 24.8501 19.21 24.8401 19.21H24.8101C24.7501 19.21 24.6901 19.21 24.6401 19.23C23.6701 19.28 22.7801 18.97 22.1101 18.4C23.1401 17.48 23.7301 16.1 23.6101 14.6C23.5401 13.79 23.2601 13.05 22.8401 12.42C23.2201 12.23 23.6601 12.11 24.1101 12.07C26.0701 11.9 27.8201 13.36 27.9901 15.34Z" fill="white"/>
<path d="M29.99 24.59C29.91 25.56 29.29 26.4 28.25 26.97C27.25 27.52 25.99 27.78 24.74 27.75C25.46 27.1 25.88 26.29 25.96 25.43C26.06 24.19 25.47 23 24.29 22.05C23.62 21.52 22.84 21.1 21.99 20.79C24.2 20.15 26.98 20.58 28.69 21.96C29.61 22.7 30.08 23.63 29.99 24.59Z" fill="white"/>
</svg>
