<svg width="21" height="22" viewBox="0 0 21 22" fill="none" xmlns="http://www.w3.org/2000/svg">
<path d="M11.4351 6.58792C11.8776 6.68766 12.2766 6.83415 12.6319 7.0274C12.9872 7.21441 13.2833 7.42635 13.5202 7.66323C14.3244 8.46114 14.8574 9.34321 15.1192 10.3094C15.3872 11.2757 15.3872 12.2419 15.1192 13.2081C14.8574 14.1743 14.3275 15.0533 13.5296 15.845L10.1821 19.1924C9.3904 19.9841 8.51145 20.514 7.54523 20.782C6.58524 21.0501 5.62213 21.0501 4.65591 20.782C3.68969 20.5202 2.80451 19.9841 2.00036 19.1737C1.20245 18.3758 0.669465 17.4938 0.401416 16.5275C0.133367 15.5613 0.130251 14.5951 0.392066 13.6289C0.660115 12.6627 1.1931 11.7837 1.99101 10.992L4.57176 8.43933C4.43462 8.90062 4.3941 9.38373 4.4502 9.88866C4.51254 10.3936 4.63409 10.8518 4.81487 11.2632L3.60865 12.4601C3.10996 12.965 2.77645 13.5167 2.60814 14.1151C2.44607 14.7073 2.44918 15.3057 2.61749 15.9104C2.7858 16.5088 3.12242 17.0605 3.62735 17.5655C4.12605 18.0641 4.67461 18.3945 5.27305 18.5566C5.87148 18.7249 6.46992 18.7249 7.06835 18.5566C7.66679 18.3945 8.21535 18.0641 8.71405 17.5655L11.9119 14.3769C12.4106 13.8782 12.741 13.3297 12.9031 12.7312C13.0714 12.1328 13.0714 11.5344 12.9031 10.9359C12.7348 10.3313 12.3982 9.77957 11.8932 9.28088C11.6439 9.02529 11.3291 8.81647 10.9488 8.65439C10.5748 8.48608 10.1571 8.37699 9.69585 8.32712L11.4351 6.58792ZM9.56495 14.779C9.12235 14.6855 8.7234 14.5452 8.36808 14.3582C8.01276 14.165 7.71666 13.9468 7.47978 13.7037C6.67563 12.9058 6.13953 12.0237 5.87148 11.0575C5.60967 10.0913 5.60967 9.12815 5.87148 8.16816C6.13953 7.20194 6.67251 6.31987 7.47042 5.52196L10.8086 2.18382C11.6065 1.3859 12.4854 0.856039 13.4454 0.594223C14.4116 0.326175 15.3747 0.326175 16.3347 0.594223C17.301 0.856039 18.1893 1.38902 18.9996 2.19317C19.7976 2.99731 20.3305 3.8825 20.5986 4.84872C20.8666 5.81494 20.8666 6.78116 20.5986 7.74739C20.3368 8.70738 19.8069 9.58321 19.009 10.3749L16.4282 12.9369C16.5654 12.4694 16.6028 11.9863 16.5404 11.4876C16.4843 10.9827 16.3659 10.5214 16.1851 10.1037L17.382 8.90685C17.8807 8.40816 18.2111 7.85959 18.3732 7.26116C18.5415 6.66272 18.5415 6.06429 18.3732 5.46585C18.2048 4.86742 17.8713 4.31574 17.3726 3.81081C16.8677 3.31211 16.316 2.97861 15.7176 2.8103C15.1254 2.64199 14.5301 2.64199 13.9316 2.8103C13.3332 2.97238 12.7815 3.30588 12.2766 3.81081L9.08807 6.99934C8.58937 7.49804 8.25587 8.0466 8.08756 8.64504C7.91925 9.23724 7.91925 9.83567 8.08756 10.4403C8.25587 11.0388 8.59249 11.5905 9.09742 12.0954C9.353 12.3447 9.6678 12.5536 10.0418 12.7219C10.4158 12.884 10.8335 12.993 11.2948 13.0491L9.56495 14.779Z" fill="white" fill-opacity="0.85"/>
</svg>
