<svg width="80" height="91" viewBox="0 0 80 91" fill="none" xmlns="http://www.w3.org/2000/svg">
<path d="M17.0946 17.9563C25.8612 11.8413 36.2265 9.72527 46.0229 11.2245L47.4376 3.20172C48.0365 -0.194609 52.4426 -1.17139 54.4207 1.65363L66.8228 19.3657C68.0491 21.1169 67.6235 23.5306 65.8722 24.7569L48.1602 37.159C45.3352 39.1371 41.5289 36.7122 42.1276 33.3159L43.7813 23.9374C37.03 22.9745 30.2725 24.5542 24.6329 28.431C12.3514 36.8736 8.9787 53.9582 17.9159 66.4973C26.3941 78.3922 43.1245 81.6399 55.5196 72.9608C60.9534 69.1561 64.731 63.6208 66.2916 57.2359C66.5333 56.2473 67.5031 55.6181 68.5053 55.7947L77.4147 57.3656C78.5092 57.5586 79.2121 58.6304 78.9638 59.7135C76.8285 69.0297 71.3666 77.6166 62.9206 83.5305C44.8245 96.2016 19.8828 91.8036 7.21169 73.7078C-5.44495 55.6325 -1.0034 30.5804 17.0946 17.9563Z" fill="black"/>
<path d="M35.277 42.6007V60.0553H31.5866V46.1036H31.4843L27.4872 48.6093V45.3365L31.8082 42.6007H35.277Z" fill="black"/>
<path d="M45.8004 60.2939C44.5958 60.2939 43.522 60.0723 42.5788 59.6291C41.6413 59.186 40.897 58.5752 40.3458 57.7968C39.7947 57.0183 39.5078 56.1263 39.485 55.1206H43.0646C43.1044 55.7968 43.3885 56.3451 43.9169 56.7655C44.4453 57.186 45.0731 57.3962 45.8004 57.3962C46.3799 57.3962 46.8913 57.2683 47.3345 57.0127C47.7833 56.7513 48.1328 56.3905 48.3828 55.9303C48.6385 55.4644 48.7663 54.9303 48.7663 54.328C48.7663 53.7144 48.6356 53.1746 48.3742 52.7087C48.1186 52.2428 47.7635 51.8791 47.3089 51.6178C46.8544 51.3564 46.3345 51.2229 45.7492 51.2172C45.2379 51.2172 44.7407 51.3223 44.2578 51.5326C43.7805 51.7428 43.4083 52.0297 43.1413 52.3933L39.86 51.8053L40.6867 42.6007H51.3572V45.6178H43.7294L43.2777 49.9899H43.3799C43.6868 49.5581 44.1498 49.2002 44.7691 48.9161C45.3885 48.632 46.0816 48.4899 46.8487 48.4899C47.8998 48.4899 48.8373 48.7371 49.6612 49.2314C50.485 49.7257 51.1356 50.4047 51.6129 51.2683C52.0902 52.1263 52.326 53.1149 52.3203 54.2343C52.326 55.4104 52.0532 56.4558 51.5021 57.3706C50.9566 58.2797 50.1924 58.9956 49.2095 59.5183C48.2322 60.0354 47.0958 60.2939 45.8004 60.2939Z" fill="black"/>
</svg>
