<svg width="80" height="91" viewBox="0 0 80 91" fill="none" xmlns="http://www.w3.org/2000/svg">
<path d="M61.9192 17.9563C53.1526 11.8413 42.7873 9.72528 32.9908 11.2245L31.5762 3.20172C30.9772 -0.194607 26.5711 -1.17139 24.593 1.65362L12.1909 19.3657C10.9647 21.1169 11.3903 23.5306 13.1415 24.7569L30.8536 37.159C33.6786 39.1371 37.4849 36.7122 36.8861 33.3159L35.2325 23.9374C41.9838 22.9745 48.7412 24.5542 54.3809 28.4311C66.6624 36.8736 70.0351 53.9583 61.0979 66.4973C52.6197 78.3922 35.8893 81.64 23.4942 72.9608C18.0604 69.1561 14.2828 63.6209 12.7222 57.2359C12.4804 56.2473 11.5107 55.6181 10.5084 55.7947L1.59902 57.3656C0.504606 57.5586 -0.19838 58.6304 0.0499349 59.7135C2.18529 69.0297 7.6472 77.6166 16.0932 83.5305C34.1893 96.2016 59.131 91.8037 71.8021 73.7078C84.4588 55.6325 80.0172 30.5805 61.9192 17.9563Z" fill="black"/>
<path d="M34.4673 41.9349V59.3894H30.7769V45.4377H30.6747L26.6775 47.9434V44.6707L30.9985 41.9349H34.4673Z" fill="black"/>
<path d="M44.9907 59.6281C43.7862 59.6281 42.7123 59.4065 41.7691 58.9633C40.8316 58.5201 40.0873 57.9093 39.5362 57.1309C38.985 56.3525 38.6981 55.4604 38.6754 54.4548H42.2549C42.2947 55.1309 42.5788 55.6792 43.1072 56.0996C43.6356 56.5201 44.2634 56.7303 44.9907 56.7303C45.5703 56.7303 46.0816 56.6025 46.5248 56.3468C46.9737 56.0854 47.3231 55.7246 47.5731 55.2644C47.8288 54.7985 47.9566 54.2644 47.9566 53.6621C47.9566 53.0485 47.826 52.5087 47.5646 52.0428C47.3089 51.5769 46.9538 51.2133 46.4992 50.9519C46.0447 50.6906 45.5248 50.557 44.9396 50.5513C44.4282 50.5513 43.9311 50.6565 43.4481 50.8667C42.9708 51.0769 42.5987 51.3638 42.3316 51.7275L39.0504 51.1394L39.8771 41.9349H50.5475V44.9519H42.9197L42.468 49.3241H42.5703C42.8771 48.8923 43.3402 48.5343 43.9595 48.2502C44.5788 47.9661 45.272 47.8241 46.039 47.8241C47.0902 47.8241 48.0277 48.0712 48.8515 48.5656C49.6754 49.0599 50.3259 49.7388 50.8032 50.6025C51.2805 51.4604 51.5163 52.4491 51.5106 53.5684C51.5163 54.7445 51.2436 55.79 50.6924 56.7048C50.147 57.6139 49.3828 58.3298 48.3998 58.8525C47.4225 59.3695 46.2862 59.6281 44.9907 59.6281Z" fill="black"/>
</svg>
