<svg width="33" height="33" viewBox="0 0 33 33" fill="none" xmlns="http://www.w3.org/2000/svg">
<path d="M16.4998 7.6998C17.7148 7.6998 18.6998 6.71483 18.6998 5.4998C18.6998 4.28478 17.7148 3.2998 16.4998 3.2998C15.2848 3.2998 14.2998 4.28478 14.2998 5.4998C14.2998 6.71483 15.2848 7.6998 16.4998 7.6998Z" fill="black"/>
<path d="M24.7498 10.4498C25.9648 10.4498 26.9498 9.46483 26.9498 8.2498C26.9498 7.03478 25.9648 6.0498 24.7498 6.0498C23.5348 6.0498 22.5498 7.03478 22.5498 8.2498C22.5498 9.46483 23.5348 10.4498 24.7498 10.4498Z" fill="black"/>
<path d="M27.4998 18.6998C28.7148 18.6998 29.6998 17.7148 29.6998 16.4998C29.6998 15.2848 28.7148 14.2998 27.4998 14.2998C26.2848 14.2998 25.2998 15.2848 25.2998 16.4998C25.2998 17.7148 26.2848 18.6998 27.4998 18.6998Z" fill="black"/>
<path d="M24.7498 26.9498C25.9648 26.9498 26.9498 25.9648 26.9498 24.7498C26.9498 23.5348 25.9648 22.5498 24.7498 22.5498C23.5348 22.5498 22.5498 23.5348 22.5498 24.7498C22.5498 25.9648 23.5348 26.9498 24.7498 26.9498Z" fill="black"/>
<path d="M16.4998 29.6998C17.7148 29.6998 18.6998 28.7148 18.6998 27.4998C18.6998 26.2848 17.7148 25.2998 16.4998 25.2998C15.2848 25.2998 14.2998 26.2848 14.2998 27.4998C14.2998 28.7148 15.2848 29.6998 16.4998 29.6998Z" fill="black"/>
<path d="M8.2498 26.9498C9.46483 26.9498 10.4498 25.9648 10.4498 24.7498C10.4498 23.5348 9.46483 22.5498 8.2498 22.5498C7.03478 22.5498 6.0498 23.5348 6.0498 24.7498C6.0498 25.9648 7.03478 26.9498 8.2498 26.9498Z" fill="black"/>
<path d="M5.4998 18.6998C6.71483 18.6998 7.6998 17.7148 7.6998 16.4998C7.6998 15.2848 6.71483 14.2998 5.4998 14.2998C4.28478 14.2998 3.2998 15.2848 3.2998 16.4998C3.2998 17.7148 4.28478 18.6998 5.4998 18.6998Z" fill="black"/>
<path d="M8.2498 10.4498C9.46483 10.4498 10.4498 9.46483 10.4498 8.2498C10.4498 7.03478 9.46483 6.0498 8.2498 6.0498C7.03478 6.0498 6.0498 7.03478 6.0498 8.2498C6.0498 9.46483 7.03478 10.4498 8.2498 10.4498Z" fill="black"/>
</svg>
